<?xml version="1.0" encoding="iso-8859-1"?>
<!-- Uploaded to: SVG Repo, www.svgrepo.com, Generator: SVG Repo Mixer Tools -->
<svg height="800px" width="800px" version="1.1" id="Layer_1" xmlns="http://www.w3.org/2000/svg" xmlns:xlink="http://www.w3.org/1999/xlink" 
	 viewBox="0 0 512 512" xml:space="preserve">
<polygon style="fill:#FFFFFF;" points="29.984,218.088 128.232,218.088 128.232,12 383.768,12 383.768,218.088 482.016,218.088 
	256,493.104 "/>
<path style="fill:#E2E2E2;" d="M371.768,24v182.088v24h24h60.848L256,474.2L55.376,230.088h60.856h24v-24V24H371.768 M395.768,0
	H116.232v206.088H4.592L256,512l251.408-305.912h-111.64V0L395.768,0z"/>
<circle cx="256" cy="108.76" r="20.44"/>
<path d="M278.816,137.376h-45.64c-16.088,0-29.192,13.096-29.192,29.192v57.24c0,5.864,4.752,10.616,10.616,10.616
	s10.616-4.752,10.616-10.616v-51.336h6.368v48.4c0,0.024-0.008,0.048-0.008,0.064v108.216c0,5.864,4.752,10.616,10.616,10.616
	s10.616-4.752,10.616-10.616V242.08h6.368v87.064c0,5.864,4.752,10.616,10.616,10.616c5.864,0,10.616-4.752,10.616-10.616V242.08
	v-21.16v-48.464h6.376v51.336c0,5.864,4.752,10.616,10.616,10.616c5.864,0,10.616-4.752,10.616-10.616V166.56
	C308.008,150.472,294.912,137.376,278.816,137.376z"/>
</svg>